<svg xmlns="http://www.w3.org/2000/svg" viewBox="0 0 879.1 879.1"><defs><style>.cls-1{isolation:isolate;}.cls-2{fill:#ff6169;}.cls-3{fill:#6cd898;}.cls-4,.cls-6{fill:#fff;}.cls-5{fill:#12c0d8;}.cls-6{mix-blend-mode:hard-light;}</style></defs><g class="cls-1"><g id="Layer_1" data-name="Layer 1"><path class="cls-2" d="M393.51,361.3l10.28,5.94,24.43,14.11h0l10.46,6,10.47-6h0l34.71-20.05V225.88a45.18,45.18,0,1,0-90.35,0V361.3Z"/><path class="cls-3" d="M483.86,361.3v52.17L529,439.55l117.3-67.72a45.17,45.17,0,0,0,16.53-61.7,45.16,45.16,0,0,0-61.72-16.54L483.86,361.3Z"/><rect class="cls-4" x="446.46" y="371.33" width="40.08" transform="translate(-123.16 283) rotate(-30)"/><path class="cls-5" d="M667.37,534.7a44.85,44.85,0,0,0-21-27.43L529,439.55l-45.17,26.08V517.8h0l117.28,67.71a45.18,45.18,0,0,0,66.23-50.81Z"/><path class="cls-2" d="M449.15,497.76l-10.47-6-10.46,6h0l-24.43,14.1-10.28,5.94h0V653.23a45.18,45.18,0,0,0,90.35,0V517.8l-34.71-20Z"/><rect class="cls-4" x="466.5" y="487.73" height="40.08"/><path class="cls-3" d="M393.51,477.71V465.63l-10.46-6h0l-34.72-20L231.05,507.27A45.18,45.18,0,0,0,214.51,569a45.16,45.16,0,0,0,61.71,16.53L393.51,517.8V477.71Z"/><polygon class="cls-4" points="428.22 497.76 428.22 497.76 403.79 511.86 428.22 497.76"/><path class="cls-5" d="M393.51,413.47V401.39h0V361.3L276.22,293.58a45.18,45.18,0,0,0-45.17,78.26l117.28,67.71,11.92-6.88Z"/><polygon class="cls-4" points="428.22 381.35 403.79 367.24 428.22 381.35 428.22 381.35"/><polygon class="cls-4" points="383.05 459.6 348.33 439.55 360.25 432.68 348.33 439.55 383.05 459.6 383.05 459.6"/><polygon class="cls-6" points="393.51 361.31 393.51 413.47 348.33 439.55 393.51 465.63 393.51 517.8 438.68 491.71 483.86 517.8 483.86 465.63 529.03 439.55 483.86 413.47 483.86 361.31 438.68 387.39 393.51 361.31"/></g></g></svg>